<?xml version="1.0" standalone="no"?>
<!DOCTYPE svg PUBLIC "-//W3C//DTD SVG 20010904//EN"
 "http://www.w3.org/TR/2001/REC-SVG-20010904/DTD/svg10.dtd">
<svg version="1.0" xmlns="http://www.w3.org/2000/svg"
 width="280.000000pt" height="280.000000pt" viewBox="0 0 280.000000 280.000000"
 preserveAspectRatio="xMidYMid meet">
<metadata>
Created by potrace 1.16, written by Peter Selinger 2001-2019
</metadata>
<g transform="translate(0.000000,280.000000) scale(0.100000,-0.100000)"
fill="#000000" stroke="none">
<path d="M518 2217 c-50 -23 -101 -79 -125 -136 -18 -43 -20 -163 -2 -220 16
-52 74 -116 126 -138 45 -18 173 -21 217 -4 16 7 51 28 78 47 l48 36 -38 44
c-41 48 -53 52 -73 27 -21 -24 -86 -51 -114 -45 -59 11 -104 96 -90 171 18 95
66 137 124 106 21 -10 34 -26 38 -45 5 -29 7 -30 69 -30 l64 0 0 100 0 100
-51 0 c-37 0 -55 -5 -64 -17 -11 -15 -15 -15 -47 5 -45 28 -100 28 -160 -1z"/>
<path d="M1025 2216 c-87 -40 -136 -126 -136 -239 -1 -152 70 -245 201 -269
129 -22 239 22 289 117 23 44 26 61 26 150 -1 82 -4 107 -22 140 -48 90 -113
125 -230 125 -61 0 -89 -5 -128 -24z m180 -120 c29 -39 29 -196 1 -243 -24
-40 -54 -48 -86 -24 -33 24 -49 72 -49 148 -2 140 70 204 134 119z"/>
<path d="M1440 2185 c0 -41 2 -45 25 -45 l25 0 0 -165 0 -165 -26 0 c-24 0
-25 -2 -22 -47 l3 -48 155 1 c137 1 161 4 206 23 96 42 144 120 144 235 0 115
-55 198 -157 236 -45 17 -78 20 -203 20 l-150 0 0 -45z m275 -57 c45 -21 69
-73 69 -153 0 -106 -30 -152 -104 -162 l-40 -6 0 167 0 166 25 0 c13 0 36 -5
50 -12z"/>
<path d="M1990 2185 c0 -38 3 -45 20 -45 19 0 20 -7 20 -165 0 -158 -1 -165
-20 -165 -17 0 -20 -7 -20 -50 l0 -50 220 0 220 0 0 85 0 85 -60 0 -60 0 0
-35 0 -35 -65 0 -65 0 0 60 0 60 70 0 70 0 0 50 0 50 -70 0 -70 0 0 55 0 56
63 -3 c62 -3 62 -3 65 -35 l3 -33 60 0 59 0 0 80 0 80 -220 0 -220 0 0 -45z"/>
<path d="M212 2056 l-103 -51 3 -45 3 -45 105 -51 c58 -29 108 -50 112 -48 3
2 11 17 16 34 12 33 11 33 -110 83 -21 9 -38 19 -38 22 0 3 36 23 80 43 l80
37 -22 36 -23 37 -103 -52z"/>
<path d="M2461 2077 c-11 -17 -18 -34 -15 -38 2 -4 37 -21 79 -40 41 -18 75
-35 75 -39 0 -4 -35 -21 -77 -40 -43 -18 -79 -34 -81 -35 -6 -4 21 -65 29 -65
4 0 56 22 114 49 l105 50 0 45 0 45 -82 41 c-129 65 -124 64 -147 27z"/>
<path d="M1040 1648 c-49 -14 -106 -62 -138 -116 -24 -42 -27 -56 -27 -142 0
-77 4 -102 22 -135 53 -99 132 -139 261 -134 107 5 164 39 207 124 27 52 30
68 30 144 -2 182 -89 273 -262 270 -32 0 -74 -5 -93 -11z m133 -116 c55 -60
53 -236 -3 -287 -67 -61 -142 83 -110 213 19 82 74 118 113 74z"/>
<path d="M350 1605 c0 -36 3 -45 18 -45 16 0 40 -31 81 -103 10 -18 32 -55 49
-83 24 -38 32 -63 32 -98 0 -39 -3 -46 -20 -46 -17 0 -20 -7 -20 -50 l0 -50
120 0 120 0 0 50 c0 43 -3 50 -20 50 -17 0 -20 7 -20 45 0 37 12 66 68 165 54
97 71 119 90 120 19 0 22 5 22 45 l0 45 -100 0 -100 0 0 -45 c0 -33 4 -45 15
-45 21 0 19 -8 -17 -80 l-31 -64 -34 69 c-38 79 -37 75 -18 75 11 0 15 12 15
45 l0 45 -125 0 -125 0 0 -45z"/>
<path d="M1420 1606 c0 -39 3 -45 23 -48 21 -3 22 -7 27 -148 5 -131 7 -149
30 -190 65 -117 278 -137 359 -34 36 46 51 118 51 251 0 116 1 123 20 123 17
0 20 7 20 45 l0 45 -110 0 -110 0 0 -50 c0 -43 3 -50 20 -50 19 0 20 -7 20
-109 0 -105 -12 -168 -34 -183 -6 -4 -26 -8 -44 -8 -26 0 -36 6 -52 33 -17 27
-20 50 -20 155 0 115 1 122 20 122 17 0 20 7 20 45 l0 45 -120 0 -120 0 0 -44z"/>
<path d="M1982 1603 c2 -39 6 -48 21 -47 16 2 17 -12 17 -162 0 -157 -1 -164
-20 -164 -17 0 -20 -7 -20 -50 l0 -50 120 0 120 0 0 50 c0 47 -2 50 -25 50
-24 0 -25 3 -25 55 0 54 0 55 30 55 35 0 50 -23 50 -77 0 -79 62 -143 138
-143 71 0 112 44 112 120 0 36 -3 40 -25 40 -20 0 -25 -5 -25 -25 0 -16 -6
-25 -15 -25 -10 0 -15 10 -15 29 0 52 -20 91 -57 110 l-36 18 39 20 c49 25 68
74 54 136 -10 49 -44 82 -98 96 -20 6 -106 11 -190 11 l-153 0 3 -47z"/>
<path d="M0 1031 c0 -40 3 -50 20 -54 19 -5 20 -14 20 -162 0 -148 -1 -157
-20 -162 -17 -4 -20 -14 -20 -54 l0 -50 133 3 132 3 3 48 3 47 -40 0 -41 0 0
50 0 50 70 0 70 0 0 45 0 45 -70 0 -70 0 0 70 0 71 58 -3 c56 -3 57 -3 60 -35
l3 -33 64 0 64 0 4 38 c2 20 4 -25 5 -101 3 -196 30 -253 144 -293 110 -39
225 1 270 95 18 37 23 70 28 190 4 80 7 122 8 94 l2 -53 55 0 55 0 0 50 c0 49
1 50 30 50 l30 0 0 -165 0 -165 -30 0 c-29 0 -30 -1 -30 -50 l0 -51 138 3 137
3 3 47 c3 46 3 47 -30 50 l-33 3 -3 163 -2 162 35 0 35 0 0 -50 0 -50 54 0 55
0 4 53 c2 28 4 -5 5 -74 1 -76 8 -145 17 -175 34 -115 169 -173 296 -129 56
20 77 40 105 100 21 45 24 64 24 188 l0 137 30 0 30 0 0 -165 c0 -158 -1 -165
-20 -165 -17 0 -20 -7 -20 -50 l0 -51 118 3 117 3 3 48 c3 45 2 47 -22 47 -25
0 -26 2 -26 60 0 53 2 60 20 60 35 0 60 -35 60 -86 0 -58 28 -107 73 -125 40
-17 111 -16 132 1 10 8 15 9 15 1 0 -8 64 -11 220 -11 l220 0 0 85 0 85 -54 0
c-54 0 -55 0 -58 -32 -3 -33 -3 -33 -65 -36 l-63 -3 0 61 0 60 70 0 70 0 0 50
0 50 -70 0 -70 0 0 55 0 56 63 -3 c62 -3 62 -3 65 -35 3 -33 4 -33 58 -33 l54
0 0 85 0 85 -220 0 -220 0 0 -50 c0 -47 2 -50 25 -50 l25 0 0 -165 c0 -103 -4
-165 -10 -165 -5 0 -10 11 -10 25 0 20 -5 25 -25 25 -18 0 -25 -5 -25 -20 0
-11 -7 -20 -15 -20 -10 0 -15 10 -15 33 0 42 -33 95 -68 108 l-27 11 30 12
c50 22 69 51 69 106 0 60 -23 96 -80 124 -35 18 -63 20 -299 20 l-260 1 -3
-47 c-3 -43 -1 -48 17 -48 20 0 21 -6 21 -129 0 -115 -2 -131 -21 -155 -23
-29 -63 -35 -93 -13 -24 17 -35 81 -36 200 0 90 1 97 20 97 17 0 20 7 20 50
l0 50 -445 0 -445 0 0 -50 c0 -44 2 -50 21 -50 20 0 21 -3 17 -134 -3 -152
-14 -176 -73 -176 -59 0 -70 24 -73 176 -3 131 -3 134 18 134 19 0 21 5 18 48
l-3 47 -317 3 -318 2 0 -49z"/>
</g>
</svg>
